<svg width="48" height="48" viewBox="0 0 48 48" fill="none" xmlns="http://www.w3.org/2000/svg">
<path fill-rule="evenodd" clip-rule="evenodd" d="M4.66842 18.9201C4.66927 18.7233 4.70896 18.5287 4.78521 18.3474C4.86146 18.166 4.97276 18.0015 5.11273 17.8633C5.2527 17.7251 5.41859 17.6158 5.60088 17.5419C5.78316 17.4679 5.97826 17.4306 6.17498 17.4323L21.177 17.5491C22.0056 17.5554 22.7162 18.2306 22.7644 19.0569L22.8614 20.7197L27.8639 12.7712C27.9672 12.6049 28.103 12.4612 28.2632 12.3485C28.4233 12.2358 28.6045 12.1566 28.796 12.1155C28.9874 12.0744 29.1852 12.0723 29.3774 12.1093C29.5697 12.1462 29.7526 12.2216 29.9151 12.3308L42.4769 20.6499C42.8094 20.87 43.041 21.2129 43.121 21.6036C43.201 21.9942 43.1227 22.4006 42.9034 22.7336L34.6973 35.2035C34.2413 35.8963 33.301 36.1035 32.5979 35.6666L22.8614 29.6169V34.5838C22.8614 35.4124 22.1895 36.0838 21.3627 36.0838H6.09342C5.89676 36.0841 5.70199 36.0454 5.52034 35.97C5.3387 35.8947 5.17376 35.7841 5.03504 35.6447C4.89632 35.5053 4.78656 35.3398 4.71208 35.1578C4.63761 34.9758 4.59989 34.7808 4.6011 34.5842L4.6686 18.9201H4.66842ZM6.88617 20.1752L6.85073 33.6398L20.7495 33.6534L20.743 28.0697L19.6266 27.2974C19.2874 27.063 19.1813 26.583 19.3909 26.2268L20.8125 23.8125L20.7252 20.1096L6.88617 20.1752ZM29.3406 14.8125L22.125 26.0231L33.556 33.2081L40.6082 22.2321L29.3406 14.8125Z" fill="#FDFFFF"/>
<path d="M25.875 26.8125C26.7034 26.8125 27.375 26.1409 27.375 25.3125C27.375 24.4841 26.7034 23.8125 25.875 23.8125C25.0466 23.8125 24.375 24.4841 24.375 25.3125C24.375 26.1409 25.0466 26.8125 25.875 26.8125Z" fill="#FDFFFF"/>
<path d="M30.9375 25.875C31.7659 25.875 32.4375 25.2034 32.4375 24.375C32.4375 23.5466 31.7659 22.875 30.9375 22.875C30.1091 22.875 29.4375 23.5466 29.4375 24.375C29.4375 25.2034 30.1091 25.875 30.9375 25.875Z" fill="#FDFFFF"/>
<path d="M36.1875 24.9375C37.0159 24.9375 37.6875 24.2659 37.6875 23.4375C37.6875 22.6091 37.0159 21.9375 36.1875 21.9375C35.3591 21.9375 34.6875 22.6091 34.6875 23.4375C34.6875 24.2659 35.3591 24.9375 36.1875 24.9375Z" fill="#FDFFFF"/>
<path d="M9.375 24.75C10.2034 24.75 10.875 24.0784 10.875 23.25C10.875 22.4216 10.2034 21.75 9.375 21.75C8.54657 21.75 7.875 22.4216 7.875 23.25C7.875 24.0784 8.54657 24.75 9.375 24.75Z" fill="#FDFFFF"/>
<path d="M13.6875 28.6875C14.5159 28.6875 15.1875 28.0159 15.1875 27.1875C15.1875 26.3591 14.5159 25.6875 13.6875 25.6875C12.8591 25.6875 12.1875 26.3591 12.1875 27.1875C12.1875 28.0159 12.8591 28.6875 13.6875 28.6875Z" fill="#FDFFFF"/>
<path d="M17.8125 24.5625C18.6409 24.5625 19.3125 23.8909 19.3125 23.0625C19.3125 22.2341 18.6409 21.5625 17.8125 21.5625C16.9841 21.5625 16.3125 22.2341 16.3125 23.0625C16.3125 23.8909 16.9841 24.5625 17.8125 24.5625Z" fill="#FDFFFF"/>
<path d="M9.5625 32.4375C10.3909 32.4375 11.0625 31.7659 11.0625 30.9375C11.0625 30.1091 10.3909 29.4375 9.5625 29.4375C8.73407 29.4375 8.0625 30.1091 8.0625 30.9375C8.0625 31.7659 8.73407 32.4375 9.5625 32.4375Z" fill="#FDFFFF"/>
<path d="M17.8125 32.4375C18.6409 32.4375 19.3125 31.7659 19.3125 30.9375C19.3125 30.1091 18.6409 29.4375 17.8125 29.4375C16.9841 29.4375 16.3125 30.1091 16.3125 30.9375C16.3125 31.7659 16.9841 32.4375 17.8125 32.4375Z" fill="#FDFFFF"/>
</svg>
